<?xml version="1.0" encoding="UTF-8" standalone="no"?>
<!-- Created with Inkscape (http://www.inkscape.org/) -->

<svg
   width="210mm"
   height="297mm"
   viewBox="0 0 210 297"
   version="1.1"
   id="svg1"
   xml:space="preserve"
   inkscape:version="1.4.3 (0d15f75, 2025-12-25)"
   sodipodi:docname="drawing.svg"
   xmlns:inkscape="http://www.inkscape.org/namespaces/inkscape"
   xmlns:sodipodi="http://sodipodi.sourceforge.net/DTD/sodipodi-0.dtd"
   xmlns="http://www.w3.org/2000/svg"
   xmlns:svg="http://www.w3.org/2000/svg"><sodipodi:namedview
     id="namedview1"
     pagecolor="#ffffff"
     bordercolor="#000000"
     borderopacity="0.25"
     inkscape:showpageshadow="2"
     inkscape:pageopacity="0.0"
     inkscape:pagecheckerboard="0"
     inkscape:deskcolor="#d1d1d1"
     inkscape:document-units="mm"
     inkscape:zoom="0.5168503"
     inkscape:cx="333.75234"
     inkscape:cy="597.85203"
     inkscape:window-width="1470"
     inkscape:window-height="891"
     inkscape:window-x="0"
     inkscape:window-y="65"
     inkscape:window-maximized="0"
     inkscape:current-layer="layer1" /><defs
     id="defs1" /><g
     inkscape:label="Layer 1"
     inkscape:groupmode="layer"
     id="layer1"><g
       style="fill:#000000"
       id="g3"
       transform="matrix(0.38068723,0,0,0.38068723,2.6457385,42.599003)"><g
         id="g2">
	<g
   id="g1">
		<path
   d="m 9.469,226.129 c 0.992,5.573 2.358,11.102 2.999,16.712 1.428,12.501 3.949,25.108 3.362,37.543 -0.75,15.896 -4.121,31.665 -6.361,47.487 0.833,-0.347 1.665,-0.698 2.501,-1.045 3.285,4.998 6.569,9.996 10.127,15.415 -1.437,4.622 -3.129,10.064 -5.104,16.409 2.432,-1.946 4.268,-3.415 4.811,-3.848 1.265,7.385 2.636,15.378 4.215,24.599 2.57,-2.117 3.37,-2.778 3.949,-3.26 0.673,3.578 1.351,7.168 2.028,10.759 0.445,-0.024 0.889,-0.049 1.334,-0.073 0.698,-2.815 1.396,-5.635 2.093,-8.45 0.665,0.024 1.33,0.05 1.995,0.074 10.18,30.791 22.595,59.535 25.063,90.584 0,0 -1.787,5.594 2.191,8.127 3.978,2.53 44.847,2.893 48.462,0 3.615,-2.893 -8.604,-17.14 -17.683,-21.049 -2.848,-11.803 -6.185,-22.097 -8.054,-34.063 -1.897,-12.143 -2.746,-24.509 -3.166,-36.806 -0.424,-12.379 4.063,-23.301 10.897,-33.758 5.161,-7.899 8.886,-16.883 12.273,-25.757 3.566,-9.344 5.479,-19.319 9.041,-28.662 3.007,-7.887 6.846,-8.025 13.472,-2.596 6.756,5.541 13.337,12.146 21.196,15.271 9.649,3.84 20.518,4.688 30.906,6.577 6.075,1.106 12.26,2.57 18.356,2.407 18.601,-0.497 37.173,-1.941 55.773,-2.542 8.364,-0.269 14.093,4.194 15.602,12.433 2.272,12.402 2.848,25.141 5.528,37.438 2.677,12.272 2.203,24.99 8.417,36.903 6.691,12.828 9.295,27.394 4.762,41.951 -1.049,3.37 -3.721,6.772 -6.605,8.771 0,0 -3.383,16.961 0.478,20.82 3.859,3.855 24.112,2.411 35.202,1.448 0,0 27.968,5.786 39.058,2.412 11.094,-3.375 5.304,-10.127 4.341,-13.982 -0.967,-3.855 -8.494,-4.794 -8.494,-4.794 -1.469,-2.856 -6.59,-4.125 -7.169,-7.152 -2.692,-14.125 -1.832,-28.091 1.832,-42.085 4.554,-17.381 7.85,-35.101 12.677,-52.4 1.673,-6.001 5.585,-11.799 9.739,-16.593 7.747,-8.939 21.399,-10.972 27.242,-22.452 0.085,-0.167 0.412,-0.225 0.636,-0.302 11.29,-3.986 16.124,-13.081 19.295,-23.771 1.656,-5.585 4.06,-10.959 6.287,-16.36 6.585,-15.981 19.185,-27.262 31.31,-38.695 3.664,-3.452 10.024,-6.748 14.55,-6.079 13.929,2.057 27.564,5.569 41.302,-0.518 0.637,-0.281 1.444,-0.767 1.991,-0.591 9.837,3.174 18.339,-0.192 26.487,-5.3 2.366,-1.485 6.638,-3.162 6.605,-4.675 -0.147,-6.752 -0.204,-14.056 -2.791,-20.082 -3.803,-8.845 -10.245,-16.52 -14.586,-25.182 -2.982,-5.949 -3.064,-12.709 -0.6,-19.56 2.081,0.718 3.427,1.167 4.757,1.648 9.172,3.301 15.745,-1.979 14.827,-11.473 -0.245,-2.534 0.607,-5.757 2.13,-7.785 8.282,-11.012 6.564,-17.997 -6.422,-23.105 -2.546,-1 -5.61,-1.167 -8.385,-0.975 -5.198,0.359 -10.354,1.261 -14.586,1.812 -2.791,-3.929 -4.325,-8.278 -7.303,-9.796 -4.99,-2.538 -8.075,-5.112 -6.517,-10.2 -8.637,-3.207 -16.695,-6.202 -25.561,-9.494 2.011,-1.057 3.043,-1.595 4.076,-2.138 -0.245,-0.669 -0.49,-1.338 -0.734,-2.008 -7.487,2.277 -14.974,4.558 -22.697,6.908 0.171,4.602 -0.094,9.298 -7.308,8.817 -1.15,-0.078 -2.611,1.212 -3.574,2.211 -4.182,4.333 -8.404,6.609 -14.517,3.043 -1.828,-1.065 -5.287,-0.245 -7.638,0.657 -7.144,2.742 -13.293,7.165 -22.064,6.096 -6.116,-0.743 -12.705,2.844 -19.144,4.186 -14.822,3.093 -29.376,3.623 -42.979,-4.818 -1.963,-1.22 -4.524,-1.995 -6.83,-2.052 -9.649,-0.229 -19.318,0.171 -28.964,-0.2 -6.487,-0.249 -12.938,-1.383 -19.4,-2.154 -3.239,-0.388 -6.454,-1.012 -9.702,-1.253 -7.74,-0.571 -15.888,0.327 -23.113,-1.86 -5.985,-1.812 -12.228,-1.318 -16.634,0.11 -10.016,3.248 -19.56,2.468 -28.69,-0.286 C 183.077,94.869 153.084,90.606 123.015,86.881 116.667,86.122 111.657,83.792 106.646,80.7 102.896,78.382 99.469,75.465 95.263,78.574 90.412,77.325 84.871,75.6 80.742,77.301 74.985,79.672 67.356,76.522 63.17,83.209 62.999,83.478 61.823,83.201 61.138,83.058 53.21,81.41 46.833,85.714 41.284,89.827 c -6.393,4.741 -12.632,7.229 -20.126,5.5 -3.321,4.133 -2.644,11.122 -9.861,11.42 -0.604,0.024 -1.428,1.367 -1.677,2.232 -1.856,6.387 -3.048,13.021 -5.488,19.165 -4.757,11.991 -2.607,24.57 -3.941,36.834 -0.4,3.664 -0.139,7.507 0.473,11.159 2.812,16.683 5.839,33.334 8.805,49.992 z m 308.183,185.289 c 0.641,-0.032 1.285,-0.061 1.926,-0.094 1.028,7.426 2.627,14.831 2.93,22.285 0.306,7.613 1.767,15.626 -2.689,23.896 -5.194,-16.111 -7.512,-31.011 -2.167,-46.087 z"
   id="path1" />
	</g>
</g></g><path
       style="fill:#808000;stroke-width:0.264583"
       d="m 170.46763,137.70509 -3.5834,-54.262974 -39.92935,2.04766 15.35744,87.025514 z"
       id="path3" /><path
       style="fill:#ff00ff;stroke-width:0.264583"
       d="m 124.90722,82.9302 -40.953188,1.023832 28.155318,71.156158 26.61957,4.09532 z"
       id="path4" /><path
       style="fill:#00ff00;stroke-width:0.264583"
       d="m 110.5736,154.59828 3.07149,14.33361 30.20297,3.5834 -5.63106,-15.86935 z"
       id="path5" /><path
       style="fill:#ff0000;stroke-width:0.264583"
       d="M 82.9302,82.418287 101.35914,148.96721 71.15616,145.38381 60.917864,79.858713 Z"
       id="path6" /><path
       style="fill:#008000;stroke-width:0.264583"
       d="m 36.345952,76.275307 32.250634,4.095319 V 103.40679 L 30.714889,95.728072 Z"
       id="path7" /><path
       style="fill:#00ffff;stroke-width:0.264583"
       d="m 30.202976,95.728072 5.63106,16.893188 41.977016,1.02383 v -12.28595 z"
       id="path8" /><path
       style="fill:#f9f9f9;stroke-width:0.264583"
       d="m 33.786378,111.08552 8.190638,21.50042 26.61957,-3.07149 -3.583403,-16.89319 z"
       id="path9" /><path
       style="fill:#a05a2c;stroke-width:0.264583"
       d="m 40.953187,131.56211 -1.023832,14.84553 31.226805,-1.02383 -3.583403,-16.89319 z"
       id="path10" /><path
       style="fill:#000080;stroke-width:0.264583"
       d="m 34.298294,76.275307 6.142977,67.572753 5.119148,11.26213 -11.774041,16.38128 -18.940848,-8.70256 2.559574,-77.811049 z"
       id="path11" /><path
       style="fill:#ffff00;stroke-width:0.264583"
       d="m 108.52594,154.08636 -69.108498,-10.75021 0.511913,12.79787 68.596585,8.19064 z"
       id="path12" /></g></svg>
